<?xml version="1.0" standalone="no"?>
<!DOCTYPE svg PUBLIC "-//W3C//DTD SVG 20010904//EN"
 "http://www.w3.org/TR/2001/REC-SVG-20010904/DTD/svg10.dtd">
<svg version="1.0" xmlns="http://www.w3.org/2000/svg"
 width="500.000000pt" height="500.000000pt" viewBox="0 0 500.000000 500.000000"
 preserveAspectRatio="xMidYMid meet">

<g transform="translate(0.000000,500.000000) scale(0.100000,-0.100000)"
fill="#000000" stroke="none">
<path d="M2287 3473 c-36 -41 -122 -294 -246 -730 -103 -358 -129 -431 -151
-418 -11 7 -17 44 -44 290 -26 225 -47 348 -69 394 -15 32 -48 38 -69 14 -42
-47 -99 -270 -153 -588 -52 -312 -46 -284 -56 -256 -6 15 -5 239 2 573 10 454
10 551 -1 558 -33 20 -37 1 -43 -218 -14 -435 -18 -909 -10 -1002 8 -93 9 -95
34 -98 24 -3 29 2 43 40 8 24 31 140 51 258 46 272 110 593 128 644 7 22 18
41 24 43 16 6 59 -272 84 -547 14 -166 19 -180 58 -180 20 0 35 8 46 23 28 40
72 166 154 447 92 311 199 640 212 655 6 5 9 3 9 -7 0 -29 -31 -322 -71 -678
-43 -390 -89 -905 -89 -1011 0 -86 12 -119 43 -119 13 0 31 8 39 18 25 27 78
139 177 372 50 118 105 239 122 268 l30 53 30 -32 c25 -27 34 -30 61 -25 18 3
44 18 58 31 14 14 36 25 47 25 12 0 35 11 52 25 l30 26 11 -43 c7 -24 19 -51
27 -60 37 -41 92 -6 113 72 9 35 14 38 49 42 38 3 40 2 46 -32 4 -19 14 -43
22 -52 25 -28 76 -23 111 10 l30 29 11 -23 c27 -60 124 -68 220 -20 51 27 125
85 117 93 -2 3 -35 -13 -73 -35 -125 -74 -196 -75 -217 -5 -12 44 3 59 65 65
103 10 118 78 17 78 -74 0 -105 -21 -137 -93 -33 -74 -74 -104 -97 -72 -8 11
-14 44 -14 81 0 35 -5 66 -10 69 -18 11 -40 -15 -40 -46 0 -27 -3 -29 -36 -29
-34 0 -35 1 -32 33 2 26 -1 33 -18 35 -23 3 -27 -5 -61 -113 -22 -74 -43 -79
-60 -15 -6 25 -12 63 -12 85 -2 78 -41 88 -41 10 0 -36 -5 -48 -31 -69 -41
-35 -49 -33 -49 13 0 22 -4 51 -10 65 -8 23 -15 26 -55 26 -38 0 -51 -5 -72
-27 -67 -74 -158 -241 -323 -595 -40 -86 -76 -155 -80 -153 -15 9 23 447 90
1055 78 705 83 790 41 790 -10 0 -25 -8 -34 -17z m1089 -1072 c-7 -11 -56 -21
-56 -11 0 13 13 20 37 20 13 0 22 -4 19 -9z m-692 -36 c7 -29 0 -48 -15 -40
-12 8 -12 65 0 65 5 0 12 -11 15 -25z m-45 -57 c27 -34 20 -61 -16 -66 -23 -3
-34 29 -25 73 6 32 11 31 41 -7z"/>
<path d="M3096 2523 c-10 -25 9 -37 28 -18 9 9 16 21 16 26 0 16 -38 10 -44
-8z"/>
</g>
</svg>
